<svg width="25" height="19" viewBox="0 0 21 19" fill="none" xmlns="http://www.w3.org/2000/svg">
<path d="M7.755 11.505C8.721 11.505 9.505 12.288 9.505 13.255V16.753C9.505 17.2171 9.32063 17.6622 8.99244 17.9904C8.66425 18.3186 8.21913 18.503 7.755 18.503H2.25C1.78604 18.503 1.34108 18.3188 1.01292 17.9908C0.684757 17.6628 0.500265 17.218 0.5 16.754V13.256C0.5 12.289 1.284 11.506 2.25 11.506L7.755 11.505ZM18.75 11.505C19.716 11.505 20.5 12.288 20.5 13.255V16.753C20.5 17.2171 20.3156 17.6622 19.9874 17.9904C19.6592 18.3186 19.2141 18.503 18.75 18.503H13.245C12.7809 18.503 12.3358 18.3186 12.0076 17.9904C11.6794 17.6622 11.495 17.2171 11.495 16.753V13.255C11.495 12.288 12.279 11.505 13.245 11.505H18.75ZM7.755 13.005H2.25C2.1837 13.005 2.12011 13.0313 2.07322 13.0782C2.02634 13.1251 2 13.1887 2 13.255V16.753C2 16.892 2.112 17.003 2.25 17.003H7.755C7.8213 17.003 7.88489 16.9767 7.93178 16.9298C7.97866 16.8829 8.005 16.8193 8.005 16.753V13.255C8.005 13.1887 7.97866 13.1251 7.93178 13.0782C7.88489 13.0313 7.8213 13.005 7.755 13.005ZM18.75 13.005H13.245C13.1787 13.005 13.1151 13.0313 13.0682 13.0782C13.0213 13.1251 12.995 13.1887 12.995 13.255V16.753C12.995 16.892 13.107 17.003 13.245 17.003H18.75C18.8163 17.003 18.8799 16.9767 18.9268 16.9298C18.9737 16.8829 19 16.8193 19 16.753V13.255C19 13.1887 18.9737 13.1251 18.9268 13.0782C18.8799 13.0313 18.8163 13.005 18.75 13.005ZM18.75 0.5C19.716 0.5 20.5 1.284 20.5 2.25V7.75C20.5 8.21413 20.3156 8.65925 19.9874 8.98744C19.6592 9.31563 19.2141 9.5 18.75 9.5H2.25C1.78587 9.5 1.34075 9.31563 1.01256 8.98744C0.684375 8.65925 0.5 8.21413 0.5 7.75V2.25C0.500016 1.81081 0.665171 1.38768 0.96268 1.06461C1.26019 0.741536 1.6683 0.542139 2.106 0.506L2.25 0.5H18.75ZM18.75 2H2.25L2.193 2.007C2.13816 2.01984 2.08926 2.05083 2.05423 2.09493C2.0192 2.13903 2.00009 2.19368 2 2.25V7.75C2 7.888 2.112 8 2.25 8H18.75C18.8163 8 18.8799 7.97366 18.9268 7.92678C18.9737 7.87989 19 7.8163 19 7.75V2.25C19 2.1837 18.9737 2.12011 18.9268 2.07322C18.8799 2.02634 18.8163 2 18.75 2Z" fill="#1B1B1B"/>
</svg>
