<svg width="28" height="26" viewBox="0 0 28 26" fill="none" xmlns="http://www.w3.org/2000/svg">
<path d="M0.666626 13C0.666626 6.09625 6.63596 0.5 14 0.5C21.364 0.5 27.3333 6.09625 27.3333 13C27.3333 19.9037 21.364 25.5 14 25.5C6.63596 25.5 0.666626 19.9037 0.666626 13Z" fill="#0E5BFF"/>
<path fill-rule="evenodd" clip-rule="evenodd" d="M13.9999 21.854C16.5046 21.854 18.9067 20.9212 20.6778 19.2608C22.4489 17.6004 23.4439 15.3484 23.4439 13.0002C23.4439 10.6521 22.4489 8.40009 20.6778 6.73969C18.9067 5.07929 16.5046 4.14648 13.9999 4.14648C11.4952 4.14648 9.09309 5.07929 7.32199 6.73969C5.5509 8.40009 4.55591 10.6521 4.55591 13.0002C4.55591 15.3484 5.5509 17.6004 7.32199 19.2608C9.09309 20.9212 11.4952 21.854 13.9999 21.854ZM12.8892 10.3965C11.9692 10.3965 11.2226 11.0965 11.2226 11.959V14.0415C11.2226 14.904 11.9692 15.604 12.8892 15.604H15.1106C16.0306 15.604 16.7772 14.904 16.7772 14.0415V11.959C16.7772 11.0965 16.0306 10.3965 15.1106 10.3965H12.8892Z" fill="white"/>
</svg>
