<svg width="32" height="30" viewBox="0 0 32 30" fill="none" xmlns="http://www.w3.org/2000/svg">
<g clip-path="url(#clip0_892_543)">
<path d="M31.2582 0L17.5273 10.1599L20.0807 4.17238L31.2582 0Z" fill="#E17726"/>
<path d="M0.773935 0.012207L11.9216 4.17333L14.3461 10.2393L0.773935 0.012207ZM25.7326 21.6075L31.8014 21.723L29.6804 28.9282L22.2751 26.8893L25.7326 21.6075ZM6.26743 21.6075L9.71206 26.8893L2.31918 28.9283L0.21106 21.723L6.26743 21.6075Z" fill="#E27625"/>
<path d="M14.0164 8.69387L14.2644 16.7042L6.84302 16.3666L8.95402 13.1819L8.98077 13.1512L14.0164 8.69387ZM17.9068 8.60449L23.0193 13.1515L23.0458 13.182L25.1568 16.3667L17.737 16.7042L17.9068 8.60449ZM9.92939 21.6304L13.9816 24.7877L9.27439 27.0604L9.92939 21.6304ZM22.0714 21.6299L22.7128 27.0605L18.0186 24.7875L22.0714 21.6299Z" fill="#E27625"/>
<path d="M18.1222 24.4902L22.8856 26.7967L18.4547 28.9025L18.5007 27.5107L18.1222 24.4902ZM13.8763 24.4912L13.5127 27.488L13.5426 28.9009L9.10132 26.7967L13.8763 24.4912Z" fill="#D5BFB2"/>
<path d="M12.5008 17.75L13.7456 20.366L9.50769 19.1245L12.5008 17.75ZM19.4989 17.7503L22.5062 19.1245L18.2544 20.3656L19.4989 17.7503Z" fill="#233447"/>
<path d="M10.2532 21.6037L9.56823 27.2337L5.89661 21.7268L10.2532 21.6037ZM21.747 21.6038L26.1037 21.7268L22.4184 27.234L21.747 21.6038ZM25.264 16.0483L22.0934 19.2797L19.6487 18.1626L18.4784 20.6231L17.7111 16.392L25.264 16.0483ZM6.73436 16.0483L14.2887 16.392L13.5214 20.6231L12.3507 18.163L9.91911 19.2798L6.73436 16.0483Z" fill="#CC6228"/>
<path d="M6.52075 15.3854L10.108 19.0255L10.2323 22.6192L6.52075 15.3854ZM25.4829 15.3789L21.7646 22.6255L21.9046 19.0255L25.4829 15.3789ZM14.1134 15.6072L14.2578 16.5159L14.6145 18.7798L14.3851 25.7329L13.3008 20.1473L13.3004 20.0895L14.1134 15.6072ZM17.8848 15.5945L18.6999 20.0895L18.6995 20.1473L17.6124 25.7469L17.5694 24.3463L17.3998 18.7385L17.8848 15.5945Z" fill="#E27525"/>
<path d="M22.2235 18.8809L22.1022 22.0031L18.3179 24.9515L17.5529 24.411L18.4104 19.9941L22.2235 18.8809ZM9.78967 18.8809L13.5895 19.9941L14.447 24.411L13.682 24.9515L9.89767 22.0029L9.78967 18.8809Z" fill="#F5841F"/>
<path d="M8.3772 26.1074L13.2187 28.4014L13.1982 27.4218L13.6033 27.0662H18.3951L18.8148 27.4205L18.7838 28.3994L23.5947 26.1132L21.2537 28.0477L18.4231 29.9918H13.5644L10.7357 28.0397L8.3772 26.1074Z" fill="#C0AC9D"/>
<path d="M17.7755 24.1851L18.46 24.6687L18.8611 27.8692L18.2806 27.3791H13.7211L13.1516 27.8791L13.5396 24.6689L14.2244 24.1851H17.7755Z" fill="#161616"/>
<path d="M30.3517 0.28125L32 5.22587L30.9706 10.2255L31.7036 10.7909L30.7118 11.5476L31.4573 12.1234L30.4701 13.0223L31.0761 13.4611L29.4679 15.3394L22.8716 13.4187L22.8145 13.3881L18.0611 9.37838L30.3517 0.28125ZM1.64825 0.28125L13.939 9.37838L9.1855 13.3881L9.12838 13.4187L2.53212 15.3394L0.923875 13.4611L1.52937 13.0226L0.542875 12.1234L1.28688 11.5483L0.280125 10.7894L1.04075 10.2236L0 5.22612L1.64825 0.28125Z" fill="#763E1A"/>
<path d="M22.549 12.9989L29.5381 15.0338L31.8087 22.032H25.8182L21.6907 22.084L24.6925 16.233L22.549 12.9989ZM9.45098 12.9989L7.30711 16.233L10.3092 22.084L6.18361 22.032H0.203857L2.46173 15.0339L9.45098 12.9989ZM20.423 4.13916L18.4681 9.41903L18.0532 16.5515L17.8945 18.7872L17.8819 24.4982H14.118L14.1057 18.7979L13.9465 16.5497L13.5315 9.41903L11.5769 4.13916H20.423Z" fill="#F5841F"/>
</g>
<defs>
<clipPath id="clip0_892_543">
<rect width="32" height="30" fill="white"/>
</clipPath>
</defs>
</svg>
