<svg width="33" height="30" viewBox="0 0 33 30" fill="none" xmlns="http://www.w3.org/2000/svg">
<path d="M6.32263 25C9.72529 25 12.2826 22.335 13.808 20.2288C13.6259 20.6688 13.5284 21.1356 13.52 21.6075C13.52 22.8375 14.304 23.7138 15.8506 23.7138C17.9746 23.7138 20.2426 22.0363 21.4186 20.2288C21.3393 20.4638 21.2975 20.7085 21.2946 20.955C21.2946 21.8125 21.8306 22.3537 22.924 22.3537C26.368 22.3537 29.8333 16.8538 29.8333 12.0463C29.8333 8.29875 27.7293 5 22.4493 5C13.1693 5 3.16663 15.215 3.16663 21.8125C3.16663 24.4038 4.71329 25 6.32263 25ZM19.2533 11.635C19.2533 10.7037 19.8306 10.0513 20.676 10.0513C21.5013 10.0513 22.0786 10.7037 22.0786 11.635C22.0786 12.5675 21.5013 13.2387 20.676 13.2387C19.8306 13.2387 19.2533 12.5675 19.2533 11.635ZM23.6666 11.635C23.6666 10.7037 24.244 10.0513 25.0893 10.0513C25.916 10.0513 26.492 10.7037 26.492 11.635C26.492 12.5675 25.9146 13.2387 25.0893 13.2387C24.244 13.2387 23.6666 12.5675 23.6666 11.635Z" fill="#AB9FF2"/>
</svg>
