<svg width="24" height="24" viewBox="0 0 24 24" fill="none" xmlns="http://www.w3.org/2000/svg">
<rect width="24" height="24" rx="12" fill="black"/>
<path d="M14.3842 14.4817L15.234 10.1594C15.248 10.0789 15.2457 9.99872 15.2271 9.92353C15.1932 9.77207 15.0962 9.64834 14.9573 9.57917C14.8887 9.54312 14.8114 9.52167 14.7299 9.51602L10.3298 9.3072C10.2478 9.3033 10.1634 9.31532 10.0815 9.34257C9.99968 9.36981 9.92191 9.41175 9.85269 9.46599C9.71288 9.57553 9.61636 9.72852 9.58435 9.8913C9.55235 10.0541 9.58748 10.2133 9.68202 10.334C9.77656 10.4546 9.92277 10.5268 10.0885 10.5347L12.989 10.668L9.00429 13.7901C8.86506 13.8992 8.76893 14.0515 8.73705 14.2137C8.70518 14.3758 8.74017 14.5344 8.83432 14.6545C8.92848 14.7747 9.07409 14.8466 9.23912 14.8544C9.40416 14.8623 9.57509 14.8054 9.71433 14.6963L13.699 11.5742L13.1345 14.4224C13.1183 14.503 13.1186 14.5838 13.1352 14.6598C13.1518 14.7359 13.1845 14.8059 13.2313 14.8657C13.2782 14.9256 13.3383 14.974 13.4082 15.0084C13.4781 15.0427 13.5565 15.0622 13.6387 15.0658C13.7208 15.07 13.8052 15.0582 13.8872 15.0311C13.9692 15.004 14.0471 14.962 14.1164 14.9077C14.1857 14.8534 14.2451 14.7878 14.291 14.7147C14.337 14.6416 14.3686 14.5624 14.3842 14.4817Z" fill="white"/>
</svg>
