<svg width="20" height="20" viewBox="0 0 20 20" fill="none" xmlns="http://www.w3.org/2000/svg">
<path d="M14.5 6C13.7044 6 12.9413 5.68393 12.3787 5.12132C11.8161 4.55871 11.5 3.79565 11.5 3C11.5 2.20435 11.8161 1.44129 12.3787 0.87868C12.9413 0.316071 13.7044 0 14.5 0C15.2956 0 16.0587 0.316071 16.6213 0.87868C17.1839 1.44129 17.5 2.20435 17.5 3C17.5 3.79565 17.1839 4.55871 16.6213 5.12132C16.0587 5.68393 15.2956 6 14.5 6ZM20 8.768C20 7.79 19.209 7 18.232 7H13.465C13.8158 7.60816 14.0003 8.29793 14 9C14 9.56748 13.8793 10.1285 13.6459 10.6457C13.4124 11.163 13.0716 11.6246 12.646 12H13.732C14.2956 12 14.8458 12.172 15.3091 12.4929C15.7724 12.8138 16.1268 13.2684 16.325 13.796C17.823 13.43 18.752 12.613 19.299 11.703C20 10.536 20 9.336 20 9.127V8.768ZM6 9C5.99973 8.29793 6.18424 7.60816 6.535 7H1.768C0.789999 7 0 7.791 0 8.768V9.128C0 9.335 0 10.536 0.700001 11.703C1.248 12.613 2.177 13.43 3.675 13.796C3.87317 13.2684 4.22758 12.8138 4.6909 12.4929C5.15421 12.172 5.7044 12 6.268 12H7.354C6.92842 11.6246 6.58758 11.163 6.35414 10.6457C6.12069 10.1285 5.99997 9.56748 6 9ZM2.5 3C2.5 3.79565 2.81607 4.55871 3.37868 5.12132C3.94129 5.68393 4.70435 6 5.5 6C6.29565 6 7.05871 5.68393 7.62132 5.12132C8.18393 4.55871 8.5 3.79565 8.5 3C8.5 2.20435 8.18393 1.44129 7.62132 0.87868C7.05871 0.316071 6.29565 0 5.5 0C4.70435 0 3.94129 0.316071 3.37868 0.87868C2.81607 1.44129 2.5 2.20435 2.5 3ZM15.5 14.768C15.5 13.79 14.709 13 13.732 13H6.268C5.291 13 4.5 13.791 4.5 14.768V15.128C4.5 15.335 4.5 16.536 5.2 17.703C5.943 18.937 7.387 20 10 20C12.613 20 14.058 18.937 14.8 17.703C15.5 16.536 15.5 15.336 15.5 15.127V14.768ZM10 12C9.60603 12 9.21593 11.9224 8.85195 11.7716C8.48797 11.6209 8.15726 11.3999 7.87868 11.1213C7.6001 10.8427 7.37913 10.512 7.22836 10.1481C7.0776 9.78407 7 9.39397 7 9C7 8.60603 7.0776 8.21593 7.22836 7.85195C7.37913 7.48797 7.6001 7.15726 7.87868 6.87868C8.15726 6.6001 8.48797 6.37913 8.85195 6.22836C9.21593 6.0776 9.60603 6 10 6C10.7956 6 11.5587 6.31607 12.1213 6.87868C12.6839 7.44129 13 8.20435 13 9C13 9.79565 12.6839 10.5587 12.1213 11.1213C11.5587 11.6839 10.7956 12 10 12Z" fill="#F8B51C"/>
</svg>
